# xmcd
#
# Track frame offsets:
#	182
#	17127
#	35035
#	48410
#	62245
#	79760
#	97607
#	116285
#	126872
#	144632
#	156657
#	176402
#
# Disc length: 2578 seconds
#
# Revision: 0
# Processed by: cddbd v1.4PL0 Copyright (c) Steve Scherf et al.
# Submitted via: dBpowerAMP V4.0
#
DISCID=9e0a100c
DTITLE=Two Timers - Two Timers
DYEAR=1900
DGENRE=Blues
TTITLE0=The Harder You Pull 
TTITLE1=Big Bad Lovin
TTITLE2=Footstompin' Music
TTITLE3=Do It
TTITLE4=Childless Mother
TTITLE5=Blues Fell This Morning 
TTITLE6=Another Story 
TTITLE7=One Good Reason 
TTITLE8=Crazy'bout You
TTITLE9=Long Gone
TTITLE10=Paradise Lost 
TTITLE11=Whole Lotta Love 
EXTD=
EXTT0=
EXTT1=
EXTT2=
EXTT3=
EXTT4=
EXTT5=
EXTT6=
EXTT7=
EXTT8=
EXTT9=
EXTT10=
EXTT11=
PLAYORDER=
